<?xml version="1.0" standalone="no"?>
<!DOCTYPE svg PUBLIC "-//W3C//DTD SVG 20010904//EN"
 "http://www.w3.org/TR/2001/REC-SVG-20010904/DTD/svg10.dtd">
<svg version="1.0" xmlns="http://www.w3.org/2000/svg"
 width="1600.000000pt" height="1000.000000pt" viewBox="0 0 1600.000000 1000.000000"
 preserveAspectRatio="xMidYMid meet">

<g transform="translate(0.000000,1000.000000) scale(0.100000,-0.100000)"
fill="#000000" stroke="none">
<path d="M0 7288 l0 -2713 2188 -3 c2182 -3 2714 -5 3357 -16 809 -14 1125
-19 1200 -22 44 -1 198 -3 343 -3 230 -1 262 -3 262 -17 0 -8 4 -13 9 -9 16 9
34 -64 27 -108 -8 -50 -21 -67 -51 -67 -21 0 -140 44 -160 60 -5 4 -31 10 -56
13 -41 6 -51 3 -85 -23 -22 -16 -46 -30 -55 -30 -21 0 -45 -28 -53 -65 -4 -16
-13 -33 -19 -37 -8 -5 -8 -13 2 -31 10 -18 10 -30 2 -45 -18 -34 -14 -72 8
-72 17 0 31 -18 31 -40 0 -4 -16 -27 -35 -50 -19 -23 -35 -52 -35 -65 0 -20 7
-25 53 -34 81 -15 244 -30 452 -41 292 -15 389 -13 473 10 39 11 81 20 92 20
24 0 124 46 165 76 24 17 55 23 165 33 166 15 200 20 200 29 0 9 -134 8 -188
-2 -29 -5 -47 -4 -57 4 -11 9 -23 9 -45 2 -29 -11 -30 -10 -30 22 0 55 35 67
118 41 17 -6 22 -3 22 9 0 18 31 21 47 5 9 -9 19 -9 41 0 25 10 35 10 60 -3
26 -14 31 -14 42 -1 7 8 20 15 29 15 21 0 73 -48 66 -61 -7 -10 15 -12 40 -3
14 6 13 8 -5 21 -19 14 -28 42 -12 44 4 1 23 3 42 4 19 1 56 12 82 24 53 24
71 26 99 11 29 -16 25 -43 -5 -38 -22 4 -36 -7 -36 -28 0 -10 76 -2 152 16 64
15 101 18 161 14 73 -7 78 -6 100 18 17 18 41 27 97 36 104 18 174 31 252 48
57 13 67 19 72 40 7 27 87 159 121 200 l20 24 470 -9 c259 -6 733 -13 1055
-17 322 -4 623 -8 670 -10 47 -2 348 -8 670 -13 322 -6 662 -12 755 -15 94 -3
557 -8 1030 -12 473 -3 863 -8 867 -10 4 -3 167 -7 363 -9 l355 -4 0 2799 0
2800 -8000 0 -8000 0 0 -2712z m10006 -1923 c9 -8 24 -15 34 -15 10 0 22 -4
25 -10 3 -5 27 -10 53 -10 34 0 43 -3 32 -10 -8 -5 -27 -10 -41 -10 -15 0 -29
-7 -33 -15 -6 -16 -47 -21 -60 -7 -4 4 -24 8 -44 9 -42 1 -61 6 -117 26 -40
15 -40 15 -14 25 14 5 38 8 53 5 20 -4 31 -1 38 11 11 20 54 21 74 1z m945 -4
c22 -18 23 -21 7 -37 -21 -21 -68 -12 -68 14 0 18 18 42 31 42 4 0 17 -9 30
-19z m389 4 c17 -21 5 -45 -23 -45 -34 0 -54 25 -37 45 16 19 44 19 60 0z
m-880 -19 c36 -1 72 -5 80 -11 8 -5 23 -8 33 -7 9 2 16 0 15 -5 -1 -4 4 -18
11 -31 12 -22 6 -91 -7 -78 -3 3 -16 -1 -29 -9 -14 -9 -33 -13 -48 -9 -16 4
-34 -1 -55 -16 -16 -12 -30 -17 -30 -13 0 5 -29 7 -65 5 -63 -4 -65 -4 -76 24
-6 16 -15 37 -20 46 -13 25 -12 28 14 28 17 0 19 2 8 9 -24 15 -23 49 2 66 16
12 32 14 62 9 22 -4 69 -7 105 -8z m392 4 c5 0 8 -7 6 -16 -4 -23 -58 -28 -59
-6 0 14 -2 14 -8 -2 -4 -11 -10 -15 -14 -10 -12 20 24 47 51 38 8 -2 18 -4 24
-4z m-604 -36 c2 -17 -3 -20 -33 -21 -39 -1 -48 13 -12 20 22 4 22 4 -3 15
-24 11 -24 12 10 9 27 -1 36 -7 38 -23z m494 19 c11 -6 -22 -53 -38 -53 -8 0
-14 -4 -14 -10 0 -5 -10 -10 -22 -10 -22 1 -73 62 -61 73 6 6 126 7 135 0z
m-2792 -50 c25 -9 49 -20 55 -25 5 -4 17 -8 27 -8 39 0 130 -54 173 -104 25
-28 61 -69 80 -91 41 -47 49 -111 23 -178 -15 -38 -44 -32 -41 8 1 17 0 40 -3
51 -6 33 -67 64 -124 64 -45 0 -50 3 -56 25 -7 28 -38 34 -48 10 -3 -8 -14
-15 -24 -15 -18 0 -20 -12 -27 -184 -4 -103 -12 -194 -19 -206 -8 -17 -28 -27
-69 -37 -56 -14 -60 -14 -112 11 l-54 25 1 168 c1 129 5 173 16 191 11 17 12
28 4 45 -6 12 -13 51 -17 87 -10 105 -14 130 -25 151 -8 14 -8 20 2 24 54 18
172 12 238 -12z m-272 -14 c2 -5 8 -7 13 -3 11 6 13 -219 2 -230 -4 -4 -20 42
-35 101 -16 59 -35 113 -43 119 -29 21 -17 35 23 28 20 -4 39 -11 40 -15z
m2812 -189 c0 -10 -9 -28 -19 -41 -19 -23 -19 -24 -40 -5 -27 24 -27 50 0 77
20 20 22 20 40 3 10 -9 19 -25 19 -34z m-2213 -246 c-3 -3 -12 -4 -19 -1 -8 3
-5 6 6 6 11 1 17 -2 13 -5z m-783 -306 c3 -15 2 -29 -3 -33 -5 -3 -17 -40 -26
-83 -19 -88 -33 -122 -51 -122 -9 0 -12 29 -11 119 1 65 5 117 10 114 4 -2 7
9 7 24 0 45 20 58 46 31 12 -13 24 -35 28 -50z m310 6 c5 -12 -13 -37 -56 -83
-84 -88 -84 -88 -161 -155 -85 -73 -90 -83 -77 -141 12 -52 2 -80 -31 -90 -29
-10 -39 3 -46 63 -8 75 10 133 51 157 88 52 196 164 196 201 0 8 5 14 10 14 6
0 20 11 32 25 25 29 72 34 82 9z m-164 -19 c12 -22 10 -28 -15 -62 -39 -52
-86 -92 -109 -93 -16 0 -18 6 -14 56 4 46 10 60 36 84 18 16 42 31 54 33 13 2
26 5 29 6 3 0 12 -10 19 -24z m1532 -21 c11 -7 10 -41 -2 -64 -23 -43 -75 -55
-230 -54 -168 1 -411 11 -457 19 -28 5 -33 10 -33 34 0 16 11 39 24 54 l24 26
333 -5 c183 -3 336 -7 341 -10z m416 -15 c5 -27 -42 -83 -88 -107 -37 -19 -58
-22 -120 -20 -72 3 -75 4 -84 31 -7 20 -6 39 4 70 l15 42 105 5 c121 6 164 0
168 -21z m-592 -184 c20 -20 48 -42 63 -49 37 -20 64 -53 58 -71 -8 -20 -23
-19 -45 3 -24 24 -68 42 -100 42 -43 0 -72 26 -72 64 0 18 3 36 7 39 16 17 55
4 89 -28z m-1596 -44 c15 -29 13 -71 -4 -71 -15 0 -66 55 -66 70 0 5 10 11 23
13 12 2 25 5 29 6 4 0 12 -8 18 -18z m447 -111 c6 -23 51 -28 83 -8 15 10 27
10 54 0 20 -8 50 -10 70 -7 27 6 39 2 55 -14 47 -47 11 -108 -56 -96 -22 3
-52 1 -67 -5 -24 -9 -33 -7 -50 7 -25 22 -96 24 -119 4 -24 -19 -97 7 -117 42
-13 24 -13 28 10 52 41 43 128 60 137 25z"/>
<path d="M8728 4103 c6 -2 18 -2 25 0 6 3 1 5 -13 5 -14 0 -19 -2 -12 -5z"/>
<path d="M8675 4090 c-3 -5 1 -10 9 -10 9 0 16 5 16 10 0 6 -4 10 -9 10 -6 0
-13 -4 -16 -10z"/>
</g>
</svg>
